<?xml version="1.0" encoding="UTF-8"?>
<!DOCTYPE svg PUBLIC "-//W3C//DTD SVG 1.1//EN" "http://www.w3.org/Graphics/SVG/1.1/DTD/svg11.dtd">
<!-- Creator: CorelDRAW X5 -->
<svg xmlns="http://www.w3.org/2000/svg" xml:space="preserve" width="210mm" height="297mm" style="shape-rendering:geometricPrecision; text-rendering:geometricPrecision; image-rendering:optimizeQuality; fill-rule:evenodd; clip-rule:evenodd"
viewBox="0 0 210 297"
 xmlns:xlink="http://www.w3.org/1999/xlink">
 <defs>
  <style type="text/css">
   <![CDATA[
    .fil0 {fill:none;fill-rule:nonzero}
    .fil4 {fill:#BFCF64;fill-rule:nonzero}
    .fil5 {fill:#FB7C38;fill-rule:nonzero}
    .fil7 {fill:#FF6677;fill-rule:nonzero}
    .fil1 {fill:#FF7E80;fill-rule:nonzero}
    .fil2 {fill:#FF899A;fill-rule:nonzero}
    .fil8 {fill:#FFA5B6;fill-rule:nonzero}
    .fil3 {fill:#FFBC42;fill-rule:nonzero}
    .fil6 {fill:#FFC6D4;fill-rule:nonzero}
    .fil9 {fill:white;fill-rule:nonzero}
   ]]>
  </style>
 </defs>
 <g id="Layer_x0020_1">
  <metadata id="CorelCorpID_0Corel-Layer"/>
  <path class="fil0" d="M42.5428 157.277c-0.5957,1.2672 2.8567,3.5288 4.4684,-1.3646 1.516,-4.6031 -1.3451,-6.5258 -3.555,-6.8226 -2.2101,-0.2965 -6.8549,2.8641 -6.6874,5.4728 0.1162,1.8144 1.7307,1.4685 2.3869,0.9696 -0.2417,0.8507 0.9186,3.4519 3.3871,1.7448"/>
  <g id="_828608592">
   <path id="_828609048" class="fil1" d="M43.59 156.029c1.6085,-1.5388 2.6347,-3.8576 1.5523,-5.645 0,0 0.7039,2.8411 -1.5523,5.645z"/>
   <path id="_828608832" class="fil1" d="M44.6438 150.274c-1.349,-0.276 -3.2979,1.2765 -4.5591,3.9348 2.5561,-3.5722 4.5591,-3.9348 4.5591,-3.9348z"/>
   <path id="_828608928" class="fil1" d="M40.9814 159.82l0.048 0.0405c0.2152,0.1827 0.57,0.1827 0.7349,-0.0314 0.1655,-0.2146 0.1429,-0.5339 -0.0879,-0.7297l-0.0477 -0.0406c-0.2154,-0.1826 -0.5705,-0.1826 -0.7353,0.0312 -0.1653,0.2148 -0.1428,0.5341 0.088,0.73z"/>
   <path id="_828609024" class="fil1" d="M39.6787 158.75c-0.4237,-0.3597 -0.9421,0.2486 -0.5178,0.6089 0.4238,0.3594 0.9423,-0.2488 0.5178,-0.6089z"/>
   <path id="_828609936" class="fil1" d="M37.5173 157.834c0.7712,0.6545 1.7147,-0.4527 0.9423,-1.1082 -0.7711,-0.6544 -1.7147,0.4527 -0.9423,1.1082z"/>
  </g>
  <path class="fil1" d="M45.2692 148.541c0.1338,-0.4254 -1.1401,-1.0008 -1.2744,-0.5744 -0.1963,0.6245 0.1714,1.4015 0.8156,1.7759 0.0393,0.023 0.0779,0.0375 0.1167,0.0529 0.6692,0.6388 1.7171,0.8674 2.3472,0.2733 0.8794,-0.8288 -0.6598,-1.5162 -1.024,-1.0314 -0.2811,0.3739 -0.9466,0.6366 -1.1432,0.5876 1.9785,-3.5849 13.1563,-17.4982 17.4013,-18.6524 0.3668,-0.0998 0.3065,-0.346 -0.0753,-0.2866 -4.0144,0.6239 -15.1195,14.8493 -17.288,18.3156 0.0306,-0.1724 0.0885,-0.3473 0.1241,-0.4605z"/>
  <g id="_828609456">
   <path id="_828609384" class="fil2" d="M133.771 147.678c11.3522,0.0735 36.9971,-1.3032 48.3215,-5.194 -3.6244,-3.565 -5.4367,-5.5131 -9.0611,-9.6705 3.6244,-6.0469 5.4367,-9.2012 9.0611,-15.8408 -11.3244,3.8908 -36.9693,5.2676 -48.3215,5.194 0,8.5037 0,17.0076 0,25.5113z"/>
   <path id="_828609816" class="fil2" d="M81.7927 135.213c-11.3524,-0.0736 -37.2582,0.8041 -48.5826,4.6951 3.6246,-6.6398 5.4369,-9.7939 9.0611,-15.841 -3.6242,-4.1576 -5.4365,-6.1055 -9.0609,-9.6703 11.3244,-3.8908 37.2302,-4.7686 48.5824,-4.6951 0,8.5037 0,17.0076 0,25.5113z"/>
  </g>
  <path class="fil1" d="M102.024 156.335c0.6947,0.9116 -1.1182,1.5257 -1.9136,1.0338 -0.2378,0.0811 -0.4558,0.1902 -0.6499,0.3321 1.3945,0.4967 2.7836,1.044 4.1634,1.6535 0.1111,-0.2139 0.1137,-0.4668 0.2907,-0.6536 0.1395,-0.1472 0.331,-0.2763 0.5382,-0.3496 0.324,-0.1146 0.7999,-0.0512 1.0032,0.3397 0.1889,0.3629 -0.0271,0.67 -0.3254,0.8034 -0.2228,0.0998 -0.495,0.1347 -0.7516,0.1699 -0.1078,0.0147 -0.2208,0.0379 -0.336,0.0466 0.336,0.2802 0.6097,0.6551 0.8353,0.983 0.2061,0.2992 0.4289,0.8109 -0.0683,0.8328 -0.4386,0.0195 -0.9512,-0.5345 -1.1961,-0.8508 -0.2965,-0.3826 -0.4214,-0.811 -0.2778,-1.1663 -1.3154,-0.5746 -2.639,-1.0939 -3.968,-1.5663 -0.0224,0.1969 0.0989,0.4943 0.1596,0.6676 0.005,0.0137 0.012,0.0271 0.0169,0.041 0.0087,0.0039 0.0167,0.0052 0.0254,0.0106 0.6128,0.3796 1.3605,0.9399 1.7043,1.5512 0.2191,0.3898 0.0486,0.7319 -0.4015,0.726 -0.5004,-0.0063 -1.1496,-0.4872 -1.4629,-0.8802 -0.3722,-0.4673 -0.3713,-0.982 -0.1505,-1.3855 -0.0249,-0.0679 -0.056,-0.1349 -0.0768,-0.2032 -0.0594,-0.1976 -0.1384,-0.4351 -0.1171,-0.6323 -0.9436,-0.3299 -1.8904,-0.6327 -2.8388,-0.9163 0.0601,0.1909 0.1098,0.3816 0.1514,0.5723 0.0295,0.008 0.0595,0.0219 0.0874,0.0492 0.3623,0.3521 0.5738,0.7963 0.5705,1.2197 -0.0026,0.3466 -0.1414,0.8206 -0.618,0.7406 -0.449,-0.0751 -0.7622,-0.4955 -0.826,-0.8692 -0.0813,-0.4764 0.1337,-0.8918 0.4853,-1.151 -0.0467,-0.2193 -0.1028,-0.439 -0.177,-0.6589 -0.9874,-0.2894 -1.9768,-0.5538 -2.9672,-0.7974 0.0152,0.2056 0.0599,0.4123 0.1299,0.6182 0.448,0.2859 0.8675,0.7594 1.0722,1.2036 0.1445,0.3139 0.0851,0.72 -0.3095,0.7289 -0.3926,0.0089 -0.7436,-0.3985 -0.9477,-0.6926 -0.2883,-0.4154 -0.3774,-0.8794 -0.1406,-1.2241 0.0072,-0.0104 0.017,-0.0156 0.0261,-0.0223 -0.0757,-0.2289 -0.1239,-0.4586 -0.1378,-0.687 -1.0663,-0.2575 -2.134,-0.4846 -3.2016,-0.6946 -0.0397,0.2827 0.0245,0.5799 0.1264,0.8768 0.4395,0.3594 1.1072,0.8774 1.2139,1.3672 0.105,0.482 -0.4117,0.5694 -0.8481,0.49 -0.5493,-0.0998 -0.8627,-0.5188 -1,-0.9813 -0.1221,-0.4117 -0.2317,-0.9401 0.2397,-1.0737 0.0121,-0.0035 0.0241,-0.0022 0.036,-0.0028 -0.0683,-0.2499 -0.1037,-0.4976 -0.077,-0.7384 -1.1293,-0.2174 -2.2585,-0.41 -3.386,-0.5809 -0.1868,0.2371 -0.3799,0.5063 -0.3547,0.8373 0.0078,0.1041 0.0393,0.2039 0.0874,0.2995 0.0308,0.0161 0.0573,0.0402 0.0777,0.0682 0.0232,-0.002 0.0486,0 0.0783,0.0117 0.5607,0.2193 1.1958,0.5295 1.447,1.0854 0.1926,0.4265 0.0328,0.9154 -0.4594,0.9436 -0.4798,0.0275 -0.9822,-0.3933 -1.2651,-0.7679 -0.3219,-0.4264 -0.395,-0.9084 -0.1273,-1.2325 -0.064,-0.115 -0.1119,-0.2349 -0.1332,-0.3618 -0.0616,-0.3644 0.092,-0.6685 0.282,-0.9358 -1.2843,-0.1893 -2.5663,-0.349 -3.8441,-0.4876 0.0939,0.3677 0.2505,0.7232 0.4637,1.0609 0.6623,0.361 1.3998,0.7905 1.7037,1.4653 0.2234,0.4958 0.0839,0.9396 -0.4902,0.9694 -0.5104,0.0262 -1.0636,-0.3046 -1.3853,-0.7282 -0.4238,-0.5581 -0.4039,-1.1909 -0.2004,-1.6915 0.008,-0.0202 0.0208,-0.0347 0.036,-0.046 -0.2002,-0.341 -0.3473,-0.6982 -0.4342,-1.0637 -1.3302,-0.1406 -2.6538,-0.2519 -3.9717,-0.348 0.1364,0.3553 0.3349,0.6894 0.5878,0.9957 0.0293,-0.0122 0.0664,-0.0148 0.1113,0.0013 0.6735,0.2381 1.4212,0.537 1.8357,1.1522 0.254,0.377 0.3824,0.934 -0.0332,1.116 -0.4362,0.1909 -1.09,-0.195 -1.4776,-0.5134 -0.5115,-0.4206 -0.5047,-0.936 -0.4922,-1.4314 -0.3761,-0.4026 -0.6629,-0.8544 -0.8425,-1.344 -1.2641,-0.0894 -2.5205,-0.1603 -3.7688,-0.2193 -0.0037,0.0084 -0.0083,0.016 -0.0122,0.0245 0.2425,0.5475 0.6187,1.0319 1.0985,1.4338 0.5746,0.1375 1.5789,0.436 1.9479,0.9399 0.2091,0.2857 0.2019,0.9117 -0.0389,1.0817 -0.3362,0.2376 -1.0386,-0.1125 -1.3663,-0.3841 -0.5108,-0.4239 -0.7239,-0.9952 -0.8219,-1.5386 -0.0002,-0.0006 0,-0.0011 0,-0.0017 -0.4917,-0.4373 -0.8755,-0.9588 -1.1256,-1.5371 -0.0052,-0.0123 -0.005,-0.0219 -0.0069,-0.0327 -3.378,-0.1534 -6.6909,-0.2154 -9.8945,-0.2703 -0.0829,-0.0013 -0.1647,-0.0649 -0.1829,-0.1419 -0.0078,-0.0334 -0.0022,-0.0637 0.0135,-0.0876 0.0201,-0.0304 0.0572,-0.0495 0.1039,-0.0486 3.2569,0.0558 6.6269,0.1195 10.0637,0.2787 0.2737,-0.5789 0.636,-1.0917 1.0874,-1.5494 0.2136,-0.4182 0.5134,-0.8806 0.9631,-1.0422 0.3631,-0.1304 0.9123,0.0258 1.0509,0.4665 0.1321,0.42 -0.1538,0.9232 -0.4998,1.0963 -0.3915,0.1959 -0.9164,0.087 -1.3984,-0.0427 -0.0332,0.0267 -0.0796,0.0243 -0.1249,0.0043 -0.2853,0.3315 -0.5245,0.6929 -0.7241,1.0829 1.257,0.0607 2.5225,0.134 3.7951,0.2258 0.1172,-0.3551 0.2983,-0.667 0.5391,-0.9419 -0.0013,-0.0032 -0.0039,-0.0056 -0.005,-0.0091 -0.2712,-0.8442 0.4206,-2.0509 1.5691,-1.4153 0.4024,0.2225 0.6545,0.6776 0.4725,1.0012 -0.2484,0.4415 -1.1167,0.4794 -1.6531,0.497 -0.0031,0.0002 -0.0055,-0.0011 -0.0083,-0.0011 -0.2596,0.2555 -0.4507,0.5542 -0.5778,0.8948 1.1995,0.0896 2.4029,0.1902 3.6127,0.3164 -0.0569,-0.737 0.1559,-1.3767 0.6097,-1.8763 0.0427,-0.4114 0.2191,-0.7787 0.5492,-1.0288 0.2959,-0.2241 0.7924,-0.3518 1.2093,-0.0173 0.3903,0.3132 0.3243,0.7689 0.0618,1.003 -0.4184,0.3728 -1.152,0.5132 -1.7491,0.6197 -0.0319,0.0059 -0.0595,-0.0004 -0.0849,-0.0108 -0.2266,0.3878 -0.326,0.8414 -0.2902,1.3439 1.3622,0.146 2.7297,0.3167 4.0997,0.5202 -0.0746,-0.4915 0.0004,-0.9425 0.2074,-1.3258 -0.0326,-0.4906 0.0947,-0.9381 0.4158,-1.2717 0.2696,-0.2803 0.7462,-0.551 1.2468,-0.2378 0.3607,0.2258 0.4097,0.6263 0.2432,0.8794 -0.2762,0.4195 -1.0532,0.5403 -1.5694,0.6991 -0.0109,0.0176 -0.0206,0.0356 -0.031,0.0534 -0.0035,0.0325 -0.0174,0.0568 -0.041,0.0705 -0.1751,0.3416 -0.2313,0.7414 -0.1664,1.1769 1.1711,0.1781 2.3442,0.3783 3.5177,0.6068 0.0019,-0.0094 0.0013,-0.0189 0.0056,-0.028 0.2191,-0.4514 0.5534,-0.808 0.9924,-1.0768 0.0024,-0.0117 0.0035,-0.0234 0.0104,-0.0349 0.2297,-0.3783 0.6206,-0.7813 1.1243,-0.8768 0.3327,-0.0629 0.7937,0.0736 0.9696,0.4319 0.2152,0.4382 -0.2234,0.7713 -0.5878,0.8692 -0.4154,0.1115 -0.8983,0.0139 -1.3579,-0.1152 -0.3551,0.2338 -0.6315,0.5306 -0.8273,0.8967 1.0064,0.2002 2.0131,0.4145 3.019,0.657 0.1477,-0.3611 0.3616,-0.6726 0.6514,-0.9385 0.0008,-0.0009 0.0021,-0.0009 0.0032,-0.0018 0.084,-0.3917 0.4069,-0.6969 0.7625,-0.8843 0.2904,-0.1532 0.6958,-0.1243 0.9481,0.2305 0.2748,0.3872 0.0573,0.7588 -0.251,0.931 -0.388,0.2174 -0.9071,0.2684 -1.4184,0.1428 -0.1555,0.1789 -0.2811,0.3785 -0.3767,0.5978 1.0077,0.2477 2.0149,0.5171 3.0196,0.8121 0.1692,-0.3032 0.3939,-0.5616 0.6711,-0.7774 -0.0321,-0.6271 1.1983,-1.5854 1.8017,-0.779 0.2818,0.3768 0.0395,0.7267 -0.2488,0.9015 -0.3629,0.2204 -0.8438,0.2623 -1.3346,0.1475 -0.0113,-0.0026 -0.0198,-0.0082 -0.03,-0.0123 -0.2149,0.1763 -0.3919,0.382 -0.5353,0.6162 0.9427,0.282 1.8841,0.5833 2.8225,0.9113 0.2501,-0.2126 0.5449,-0.3677 0.8724,-0.4748 0.0098,-0.0662 -0.0265,-0.1527 -0.0148,-0.2213 0.0176,-0.1037 0.0931,-0.1783 0.1547,-0.257 0.1664,-0.213 0.3343,-0.4367 0.5878,-0.5712 0.3773,-0.2004 0.9818,-0.1653 1.3252,0.2851z"/>
  <g id="_828609720">
   <g>
    <path id="_828609360" class="fil1" d="M63.4327 133.146c-0.031,-0.0039 -0.0627,0.0106 -0.0788,0.0397 -1.1368,2.0381 -7.8063,22.9477 -7.988,25.2663 -0.0035,0.0434 0.0277,0.084 0.0726,0.0848 0.0434,0.0033 0.0814,-0.029 0.0846,-0.0722 0.1801,-2.2963 6.843,-23.1838 7.9686,-25.2024 0.0212,-0.0379 0.0076,-0.0859 -0.0306,-0.1069 -0.0091,-0.0052 -0.0187,-0.0083 -0.0284,-0.0093z"/>
   </g>
   <path id="_828609432" class="fil1" d="M61.3768 160.638c-0.4159,0.7731 -0.7844,-0.4859 -2.1455,-1.7014 -0.5579,-0.4983 -1.4397,-0.6152 -2.3167,-0.6094 1.1844,0.1903 2.5718,0.9523 3.1566,2.8351 0.7377,2.3752 0.7607,4.2914 0.1106,4.4409 -1.1202,0.2572 -1.7019,-1.6221 -2.0709,-3.9314 -0.2516,-1.575 -0.9501,-2.3704 -1.6307,-2.8066 0.7648,0.6568 1.4006,2.0464 1.5826,4.619 0.1783,2.5166 -1.0749,4.2842 -1.7358,4.3159 -1.1388,0.0547 -1.6474,-2.2639 -1.3683,-4.6057 0.2952,-2.4761 0.4913,-3.6082 0.4831,-4.573 -0.3965,1.0566 -0.818,2.0631 -0.8957,4.4454 -0.0759,2.3292 0.2267,4.5448 -1.0288,4.3103 -0.7286,-0.1362 -2.1572,-1.8921 -1.2826,-5.2933 0.6473,-2.516 1.8689,-3.283 2.7349,-3.6277 -1.0056,0.2173 -2.485,1.0388 -3.0954,3.07 -0.7544,2.5103 -0.908,3.9834 -2.0618,3.4431 -0.6698,-0.3137 -1.4956,-2.6991 -0.0707,-4.7728 1.3681,-1.9911 3.5349,-2.3546 4.896,-2.0819 -0.7959,-0.228 -1.7186,-0.3213 -3.1223,0.0436 -1.6587,0.431 -2.2856,0.8889 -2.5949,0.1869 -0.2915,-0.6616 1.0887,-2.4652 3.1552,-2.3244 2.2663,0.1542 2.9759,1.3999 3.3262,2.2813 0.0642,-0.0213 0.1245,-0.0415 0.1794,-0.0608 -0.0052,0.0146 -0.0104,0.0287 -0.0157,0.0432 0.8005,-0.7586 2.149,-1.718 4.244,-0.9935 1.5496,0.536 2.086,2.3822 1.5672,3.3472z"/>
   <g>
    <path id="_828609408" class="fil3" d="M53.2167 159.959l0.0054 0.0197c0.033,0.1245 0.1744,0.2106 0.3015,0.1662 0.1278,-0.0445 0.2109,-0.1759 0.1755,-0.3094l-0.0054 -0.0197c-0.0044,-0.0163 -0.0107,-0.0319 -0.0185,-0.0466 0.3699,-0.4916 0.8319,-0.82 1.3709,-0.9727 -0.321,0.464 -0.5817,0.9794 -0.7806,1.5377 -0.0467,-0.0906 -0.1428,-0.1522 -0.2718,-0.1136 -0.3067,0.0922 -0.1812,0.5674 0.1264,0.4752 0.0115,-0.0034 0.0211,-0.0084 0.0315,-0.013 -0.0406,0.1349 -0.0772,0.2722 -0.1106,0.4117 -0.0842,0.0031 -0.166,0.046 -0.212,0.1273 -0.005,0.0085 -0.0097,0.0172 -0.0145,0.0256 -0.0651,0.1146 -0.0286,0.2779 0.0892,0.336 0.1184,0.0586 0.2681,0.0211 0.3373,-0.101l0.0145 -0.0259c0.0035,-0.006 0.0054,-0.0125 0.0082,-0.0188 0.01,0.0438 0.03,0.0846 0.0586,0.1175 -0.0026,0.0007 -0.005,0.0007 -0.0076,0.0016 -0.3069,0.0919 -0.1811,0.5674 0.1262,0.475 0.2029,-0.0607 0.2161,-0.2885 0.1133,-0.4095 0.0034,-0.0011 0.0069,-0.0011 0.0104,-0.0022 0.133,-0.0399 0.1854,-0.1501 0.1787,-0.2566 0.0098,0.0013 0.0204,0.0006 0.0306,0.0004 -0.0061,0.1981 -0.0054,0.3978 -0.0011,0.5987 -0.0974,0.0579 -0.1546,0.1705 -0.1243,0.285l0.0052 0.0198c0.0332,0.124 0.1744,0.2104 0.3018,0.1659 0.1275,-0.0445 0.2106,-0.1759 0.1752,-0.3093l-0.0052 -0.0197c-0.0201,-0.0755 -0.0804,-0.1365 -0.1529,-0.163 -0.0046,-0.2277 -0.002,-0.4537 0.0074,-0.678 0.0575,-0.0792 0.0572,-0.1874 0.0143,-0.2712 0.0152,-0.2243 0.0371,-0.447 0.0662,-0.6676 0.0889,-0.0601 0.1396,-0.1668 0.1108,-0.2755l-0.0054 -0.02c-0.0087,-0.0327 -0.0252,-0.0624 -0.0469,-0.0882 0.0352,-0.2052 0.0755,-0.4087 0.1228,-0.61 -0.0143,0.3707 -0.0083,0.7434 0.0156,1.1171 -0.11,0.1098 -0.0826,0.303 0.0319,0.3885 0.0069,0.0692 0.0134,0.1384 0.0219,0.2078 -0.2792,0.0885 -0.1913,0.498 0.0668,0.4841 -0.0599,0.1079 -0.0301,0.2545 0.0603,0.3306 0.0059,0.0304 0.0113,0.0608 0.0176,0.0911 -0.0974,0.0582 -0.1545,0.1705 -0.1241,0.2848l0.0052 0.0198c0.0332,0.1243 0.1744,0.2104 0.3017,0.1661 0.1276,-0.0447 0.2107,-0.1761 0.1753,-0.3093l-0.0052 -0.0197c-0.0204,-0.0764 -0.0816,-0.138 -0.1553,-0.1642 -0.002,-0.0098 -0.0033,-0.0196 -0.0052,-0.0293 0.0022,-0.0007 0.0039,-0.0002 0.0061,-0.0009 0.1052,-0.0317 0.1594,-0.1076 0.1746,-0.1907 0.0084,0.1419 0.1247,0.2775 0.3019,0.2241 0.3067,-0.092 0.1809,-0.5672 -0.1264,-0.475 -0.1031,0.031 -0.1564,0.1052 -0.1714,0.1865 -0.0072,-0.1273 -0.0998,-0.2492 -0.2449,-0.2399 0.059,-0.1091 0.0247,-0.2566 -0.0705,-0.3282 -0.0082,-0.0687 -0.0178,-0.1377 -0.0249,-0.2063 0.0008,-0.0004 0.0017,-0.0002 0.0026,-0.0006 0.2811,-0.0844 0.2052,-0.4831 -0.0408,-0.4944 -0.0156,-0.2776 -0.0245,-0.555 -0.0185,-0.831 0.0957,0.4684 0.2447,0.9219 0.4415,1.3616 -0.2282,0.1321 -0.1,0.5349 0.1854,0.4492 0.2506,-0.0752 0.2122,-0.4052 0.0224,-0.4737 -0.0002,-0.0006 -0.0007,-0.0013 -0.0011,-0.0019 0.0212,-0.0011 0.0432,-0.0035 0.0664,-0.0105 0.1715,-0.0516 0.2097,-0.2201 0.1581,-0.3468 0.0217,-0.0111 0.0384,-0.0256 0.0544,-0.0406 0.0074,0.0248 0.0157,0.0491 0.0228,0.074 -0.0924,0.1258 -0.041,0.3254 0.0972,0.3857 0.0195,0.0906 0.0353,0.1828 0.0507,0.2752 -0.272,0.1113 -0.1457,0.554 0.1521,0.4647 0.239,-0.0718 0.215,-0.3751 0.0475,-0.4625 -0.0091,-0.0557 -0.0189,-0.1113 -0.0295,-0.1666 0.02,-0.0011 0.0395,-0.0019 0.0614,-0.0084 0.2573,-0.0773 0.2156,-0.4183 0.0182,-0.4842 -0.0447,-0.0707 -0.123,-0.1145 -0.223,-0.1006 -0.0165,-0.0571 -0.0329,-0.1141 -0.0512,-0.1701 0.0373,0.008 0.0788,0.008 0.1248,-0.0059 0.0522,-0.0156 0.0911,-0.0429 0.1199,-0.0759 -0.0286,0.1636 0.0965,0.3538 0.3035,0.2918 0.2516,-0.0755 0.2173,-0.4039 0.031,-0.4798 -0.3332,-0.7402 -0.8878,-1.2905 -1.5405,-1.5328 -0.0102,-0.008 -0.0206,-0.0141 -0.0315,-0.0171 -0.062,-0.0015 -0.2492,0.0178 -0.2575,0.0315 -0.7071,0.1184 -1.3118,0.5121 -1.768,1.142 -0.0326,-0.0041 -0.0662,-0.0017 -0.0989,0.0098 -0.1278,0.0444 -0.2109,0.1759 -0.1755,0.3091zm3.5923 0.129l0 0c0.0134,-0.0765 -0.0069,-0.1583 -0.054,-0.218 0.0078,-0.0063 0.0143,-0.0136 0.0212,-0.0206 0.0347,0.0608 0.0682,0.123 0.0996,0.1872 -0.026,0.0146 -0.049,0.0313 -0.0668,0.0514zm-0.3078 -0.6392l0 0c-0.1688,0.0755 -0.1796,0.2785 -0.0872,0.3956 -0.0191,0.0152 -0.0345,0.033 -0.0471,0.0521 -0.1449,-0.3601 -0.3221,-0.7028 -0.5349,-1.0251 0.249,0.1442 0.4742,0.3401 0.6692,0.5774zm-0.287 0.5965l0 0c-0.0258,-0.0006 -0.0529,0.0015 -0.0824,0.0104 -0.1714,0.0514 -0.2095,0.2202 -0.1579,0.3466 -0.0276,0.0141 -0.0495,0.0324 -0.0681,0.0525 -0.2013,-0.5321 -0.3263,-1.0837 -0.3768,-1.6591 0.282,0.3835 0.5102,0.8023 0.6852,1.2496zm-1.4917 0.8332l0 0c-0.1288,0.0386 -0.1807,0.1449 -0.1755,0.2483 -0.0336,-0.005 -0.0707,-0.0026 -0.111,0.0094 -0.0792,0.0238 -0.1298,0.0726 -0.1567,0.1308 -0.0084,-0.0334 -0.024,-0.0645 -0.0453,-0.0909 0.0573,-0.2399 0.1243,-0.4735 0.203,-0.6991 0.0436,0.1017 0.146,0.1744 0.2851,0.1325 0.0457,-0.0137 0.0815,-0.036 0.1091,-0.0633 -0.0115,0.1067 -0.0208,0.2141 -0.0291,0.3219 -0.0252,-0.0005 -0.0512,0.0017 -0.0796,0.0104zm0.3512 -1.7254l0 0c-0.0564,0.2308 -0.105,0.464 -0.146,0.6994 -0.021,0.0006 -0.0423,0.0032 -0.0633,0.0106 -0.1094,0.0382 -0.1853,0.1399 -0.1829,0.2521 -0.0275,-0.0014 -0.0564,0.0008 -0.0881,0.0104 -0.0097,0.0028 -0.0178,0.0073 -0.0266,0.0108 0.1429,-0.3475 0.3117,-0.6761 0.5069,-0.9833z"/>
    <path id="_828609696" class="fil3" d="M53.572 160.661c-0.3124,0.0939 -0.1842,0.5781 0.1286,0.4839 0.3126,-0.0937 0.1846,-0.5778 -0.1286,-0.4839z"/>
   </g>
  </g>
  <g id="_828610536">
   <path id="_828610104" class="fil3" d="M42.3174 147.334c-0.3132,0.2091 -0.7256,0.2503 -1.0945,0.2115 -1.0241,-0.1082 -1.9494,-2.7218 -1.3933,-5.0656 -0.5397,1.1074 -0.2984,2.4394 -0.6206,3.0477 -0.9659,1.8238 -2.547,0.7166 -2.9554,0.0605 -0.4282,-0.6885 0.0683,-1.6915 2.1858,-4.0951 -1.8917,1.9368 -3.3723,1.9819 -3.8309,1.8995 -1.0358,-0.1859 -2.093,-1.5928 -1.4459,-2.7249 1.2687,-2.2199 3.8853,0.2898 5.0608,-0.2256 -1.1254,0.033 -4.4806,-2.1062 -3.5481,-4.2613 0.1414,-0.3264 0.3872,-0.636 0.7187,-0.7739 0.2787,-0.1161 0.5887,-0.0918 0.852,0.0076 0.5236,0.1976 1.3347,2.9932 1.9349,3.4047 -1.0562,-1.6197 -0.3566,-2.7841 -0.01,-2.977 0.2993,-0.1668 0.6676,-0.2941 1.0186,-0.2679 0.295,0.0222 0.5403,0.1515 0.7059,0.3154 0.5539,0.5484 0.2683,1.3544 0.1082,2.0718 -0.1835,0.8225 -0.172,1.6498 0.0338,2.4359 0.0271,0.1039 0.0632,0.3195 0.0861,0.3219 0.161,0.0165 0.4597,0.5718 1.2449,0.538 1.231,-0.0534 2.2468,0.2388 2.7793,1.0429 1.0659,1.6101 -0.1781,2.4444 -1.0197,2.5941 -0.7954,0.1412 -1.7004,-0.484 -2.8316,-2.3935 0.5928,1.9883 2.1614,2.2687 2.6898,3.4644 0.2147,0.4861 -0.4055,1.193 -0.6688,1.3689z"/>
   <path id="_828610512" class="fil4" d="M58.1161 131.536c-2.9275,-0.8871 -15.4137,6.9029 -17.7049,8.9291 0.1778,-0.041 0.357,-0.056 0.5505,-0.0228 0.413,0.0712 0.7334,0.1714 1.1251,-0.0427 0.0814,-0.0445 0.1352,0.0687 0.0816,0.1267 -0.5147,0.554 -1.4113,1.0223 -2.0149,0.3249 -0.0454,-0.0167 -0.077,-0.0462 -0.1009,-0.0853 -0.0189,-0.0006 -0.0373,-0.0078 -0.0516,-0.0223 -0.0137,-0.0158 -0.0206,-0.0345 -0.0208,-0.0531 -0.0382,-0.0573 -0.0716,-0.1282 -0.0616,-0.1901 0.0004,-0.0026 0.0023,-0.0045 0.003,-0.0069 -0.1555,-0.3212 -0.0069,-0.7622 0.1349,-1.0622 0.2076,-0.4384 0.5445,-0.7848 0.9134,-1.0915 0.0762,-0.0634 0.1668,0.047 0.0987,0.1156 -0.2049,0.2058 -0.4013,0.4312 -0.4819,0.7169 -0.0662,0.2347 -0.0345,0.4876 -0.0523,0.7275 -0.008,0.1074 -0.0256,0.2095 -0.0551,0.3052 2.3266,-1.9505 14.7757,-9.6947 17.6811,-8.8143 0.0143,0.0043 0.0266,0.0126 0.0355,0.0234 0.0163,0.0189 0.0228,0.0456 0.015,0.0714 -0.0121,0.0401 -0.0544,0.0627 -0.0948,0.0505z"/>
   <g>
    <path id="_828610560" class="fil5" d="M39.529 142.653c-0.0052,-0.0228 -0.0161,-0.0432 -0.0304,-0.0603 0.2024,-0.4774 0.213,-0.9598 0.0258,-1.4071 0.005,-0.0096 -0.0516,-0.1237 -0.075,-0.159 -0.0057,-0.0052 -0.013,-0.0091 -0.0215,-0.0124 -0.3781,-0.2928 -0.9008,-0.4245 -1.4538,-0.3638 -0.1121,-0.0813 -0.3162,0.0109 -0.2689,0.1816 0.0386,0.1403 0.1952,0.1473 0.2802,0.0751 -0.0087,0.0279 -0.0106,0.0596 -0.0006,0.095 0.0084,0.031 0.0236,0.0551 0.0418,0.0737 -0.0394,0.0085 -0.0787,0.0187 -0.118,0.0284 -0.0282,-0.0622 -0.0822,-0.0924 -0.1397,-0.0939 -0.1099,-0.0911 -0.3242,0.0013 -0.2761,0.1757 0.0041,0.0148 0.0109,0.0263 0.0174,0.0382 -0.0363,0.0128 -0.0721,0.026 -0.1081,0.0397 -0.1117,-0.0664 -0.2976,0.023 -0.2527,0.185 0.0558,0.2022 0.3601,0.1236 0.3265,-0.0707 0.0594,-0.0228 0.1191,-0.0451 0.1789,-0.0649 0.0855,0.059 0.2206,0.0206 0.2608,-0.0754 0.0171,-0.0044 0.0342,-0.0081 0.0514,-0.0122 -0.0031,0.0143 -0.0054,0.0291 -0.0041,0.0451 -0.0924,0.0135 -0.1773,0.0931 -0.1452,0.2093 0.0044,0.0159 0.0109,0.0291 0.0181,0.0417 0,0 -0.0011,0.0002 -0.0016,0.0002 -0.1089,-0.0859 -0.3154,0.0046 -0.2685,0.1744 0.0536,0.1933 0.3353,0.1299 0.3297,-0.0464 0.328,-0.0367 0.6471,-0.1057 0.9553,-0.2104 -0.159,0.0976 -0.3243,0.1872 -0.4922,0.2729 -0.0956,-0.1378 -0.3562,-0.0454 -0.3034,0.1451 0.0002,0.0006 0.0004,0.0011 0.0006,0.0017 -0.0427,0.0193 -0.0863,0.0373 -0.1295,0.056 -0.0763,-0.0304 -0.175,0.0002 -0.2173,0.0713 -0.0471,-0.0867 -0.1519,-0.0984 -0.2289,-0.0592 0.0421,-0.0362 0.0662,-0.0922 0.0469,-0.1622 -0.0577,-0.2083 -0.3809,-0.1187 -0.3235,0.0893 0.0332,0.1202 0.1545,0.1408 0.2404,0.0974 -0.043,0.0369 -0.0677,0.0942 -0.0479,0.1655 0.0004,0.0013 0.0013,0.0022 0.0017,0.0037 -0.0065,0.0022 -0.0126,0.0048 -0.0191,0.007 -0.0421,-0.0334 -0.1002,-0.0478 -0.1521,-0.0332l-0.0136 0.0037c-0.0907,0.0249 -0.1371,0.1175 -0.1169,0.2063 0.0201,0.0882 0.1219,0.1403 0.2065,0.1169l0.0134 -0.0037c0.0777,-0.0215 0.1226,-0.0926 0.121,-0.1683 0.02,-0.007 0.04,-0.0141 0.0599,-0.0211 0.077,0.026 0.1735,-0.0067 0.2148,-0.0781 0.0854,0.1532 0.3566,0.0642 0.3071,-0.1267 0.0434,-0.0188 0.0861,-0.0386 0.1293,-0.0583 0.0913,0.0369 0.2141,-0.0132 0.2384,-0.1141 0.2269,-0.1137 0.4468,-0.2373 0.6581,-0.372 -0.1004,0.0959 -0.2046,0.1885 -0.3117,0.2785 -0.023,-0.0035 -0.0464,-0.0028 -0.0686,0.0033l-0.0136 0.0037c-0.074,0.0206 -0.1178,0.0861 -0.1208,0.1579 -0.1183,0.0919 -0.2404,0.1804 -0.366,0.2657 -0.0644,0.0039 -0.1275,0.0405 -0.1531,0.1006 -0.1276,0.082 -0.2586,0.1605 -0.3931,0.2356 -0.0418,-0.0328 -0.0993,-0.0466 -0.1507,-0.0323l-0.0135 0.0037c-0.0906,0.0249 -0.1373,0.1175 -0.1171,0.2063 0.0204,0.0882 0.1219,0.1403 0.2065,0.1169l0.0135 -0.0037c0.0776,-0.0215 0.1227,-0.0929 0.1212,-0.1688 0.1189,-0.0659 0.2358,-0.1336 0.3492,-0.2047 0.0037,0.006 0.0072,0.0123 0.0113,0.0175 -0.0646,0.0323 -0.1097,0.1002 -0.085,0.1903 0.0006,0.0026 0.0019,0.0043 0.0026,0.0067 -0.108,-0.0178 -0.2362,0.0674 -0.1983,0.205 0.0577,0.2082 0.3809,0.1186 0.3234,-0.0894 -0.0006,-0.0017 -0.0013,-0.003 -0.0019,-0.005 0.0297,0.0052 0.0607,0.003 0.0898,-0.0063 -0.0026,0.0037 -0.0056,0.0072 -0.0078,0.0111l-0.01 0.0171c-0.0462,0.0816 -0.0137,0.1807 0.0634,0.2286 0.0767,0.0482 0.1852,0.0133 0.2286,-0.0631 0.0032,-0.0056 0.0065,-0.0115 0.0097,-0.0171 0.0308,-0.0542 0.0261,-0.1158 -0.0026,-0.1655 0.0692,-0.0668 0.1363,-0.1347 0.2002,-0.2039 0.0013,0.0074 0.0018,0.0147 0.004,0.0225 0.0577,0.2085 0.3809,0.1187 0.3234,-0.0893 -0.0241,-0.0874 -0.095,-0.1219 -0.1649,-0.1176 0.2538,-0.305 0.4603,-0.631 0.615,-0.9739 0.1063,0.3624 0.082,0.7403 -0.071,1.1208 -0.0115,0.0006 -0.0227,0.0021 -0.034,0.0052l-0.0135 0.0037c-0.0906,0.0251 -0.1373,0.1177 -0.1169,0.2065 0.0202,0.0882 0.1217,0.1403 0.2063,0.1169l0.0134 -0.0037c0.0907,-0.0252 0.1374,-0.1178 0.1172,-0.2063zm-1.4896 -1.8733l0 0c0.0491,-0.0037 0.0974,-0.0058 0.1456,-0.0065 -0.0018,0.0063 -0.0035,0.0126 -0.0044,0.0193 -0.0518,-0.0067 -0.1071,0.0094 -0.147,0.0432 0.0054,-0.0169 0.0067,-0.036 0.0058,-0.056zm1.0592 0.2035l0 0c-0.2653,-0.0126 -0.5299,0.0024 -0.7926,0.0416 0.0065,-0.0136 0.0111,-0.0286 0.0133,-0.0449 0.1019,0.0133 0.2164,-0.0622 0.1993,-0.1848 0.2093,0.031 0.4054,0.0937 0.58,0.1881zm0.154 0.1484l0 0c-0.3544,0.1674 -0.7219,0.2835 -1.1056,0.3492 0.0052,-0.0178 0.0078,-0.0364 0.0061,-0.0571 0.0926,-0.0134 0.1772,-0.093 0.1451,-0.2093 -0.0054,-0.0199 -0.0141,-0.0362 -0.0238,-0.051 0.3247,-0.0518 0.6522,-0.0631 0.9782,-0.0318zm-0.9466 1.1253l0 0c0.0599,-0.0414 0.1193,-0.0835 0.1775,-0.1264 -0.0061,0.0251 -0.0061,0.0533 0.0026,0.0841 0.026,0.0944 0.1056,0.1284 0.1806,0.1189 -0.103,0.1223 -0.2151,0.2405 -0.3344,0.3555 -0.0232,-0.0035 -0.0471,-0.0017 -0.0697,0.0048 0.0243,-0.0352 0.0345,-0.0811 0.0196,-0.1347 -0.0076,-0.0274 -0.0198,-0.0495 -0.0347,-0.0673 0.0622,-0.0321 0.1056,-0.0982 0.0813,-0.1856 -0.0052,-0.0191 -0.0135,-0.035 -0.0228,-0.0493zm0.5126 -0.1141l0 0c-0.0011,-0.0063 -0.0015,-0.0126 -0.0033,-0.0191 -0.0058,-0.0214 -0.0151,-0.0388 -0.0258,-0.0542 0.0664,-0.0369 0.0983,-0.1152 0.0809,-0.1911 -0.0034,-0.0148 -0.0095,-0.0278 -0.0169,-0.0401 0.1228,-0.1039 0.2412,-0.2113 0.3555,-0.3226 -0.1086,0.2171 -0.2392,0.4263 -0.3904,0.6271z"/>
    <path id="_828610272" class="fil5" d="M38.8733 142.894c0.0585,0.2119 -0.2708,0.3032 -0.3293,0.0911 -0.0586,-0.2119 0.2705,-0.3033 0.3293,-0.0911z"/>
   </g>
  </g>
  <g id="_828610752">
   <path id="_828610152" class="fil6" d="M151.004 102.784c-0.2091,-1.3241 -4.1595,-1.2596 -2.8062,3.4827 1.2733,4.4613 4.5732,4.4466 6.4833,3.4937 1.9102,-0.9529 3.8906,-5.9532 2.3559,-7.9298 -1.0674,-1.3748 -2.1604,-0.2329 -2.4121,0.515 -0.2657,-0.8039 -2.583,-2.2407 -3.6209,0.4384z"/>
   <g>
    <path id="_828610224" class="fil1" d="M150.846 104.336c-0.447,2.0834 -0.0136,4.4719 1.8046,5.3057 0,0 -2.0846,-1.872 -1.8046,-5.3057z"/>
    <path id="_828610464" class="fil1" d="M153.104 109.46c1.2171,-0.5067 1.9264,-2.7839 1.4967,-5.5675 -0.1047,4.2035 -1.4967,5.5675 -1.4967,5.5675z"/>
    <path id="_828610200" class="fil1" d="M150.875 99.9304l-0.0597 -0.0065c-0.2687,-0.0291 -0.5498,0.1618 -0.5655,0.4199 -0.0156,0.2588 0.174,0.4998 0.4621,0.5308l0.0596 0.0063c0.2688,0.0291 0.5499,-0.1618 0.5655,-0.4199 0.0156,-0.2588 -0.174,-0.4996 -0.462,-0.5306z"/>
    <path id="_828610008" class="fil1" d="M152.481 100.077c0.529,0.057 0.6127,-0.7035 0.0828,-0.7605 -0.5288,-0.0573 -0.6125,0.7032 -0.0828,0.7605z"/>
    <path id="_828610176" class="fil1" d="M154.686 99.6413c-0.9625,-0.1039 -1.115,1.2802 -0.1508,1.3841 0.9627,0.1041 1.115,-1.28 0.1508,-1.3841z"/>
   </g>
   <path id="_828610896" class="fil1" d="M153.541 111.169c0.1227,0.4088 1.4411,0.1798 1.3181,-0.2298 -0.18,-0.6004 -0.8889,-1.0181 -1.6006,-0.9687 -0.0434,0.003 -0.0817,0.0124 -0.1208,0.0211 -0.8735,-0.1465 -1.8264,0.2357 -2.0062,1.045 -0.2512,1.1291 1.3377,0.8462 1.3657,0.2666 0.0214,-0.4472 0.4075,-1.0132 0.5895,-1.0798 0.3597,3.9032 -1.0164,20.9324 -3.7587,24.1287 -0.2368,0.2759 -0.0568,0.4384 0.2137,0.1863 2.8448,-2.652 3.9956,-19.8895 3.85,-23.8009 0.0686,0.1532 0.1165,0.3226 0.1493,0.4315z"/>
  </g>
  <g id="_828611424">
   <g>
    <path id="_828611040" class="fil1" d="M151.288 136.503c0.0284,0.0095 0.0607,0.0015 0.0813,-0.0226 1.4469,-1.7021 11.6034,-20.0942 12.2058,-22.2376 0.0113,-0.0399 -0.0102,-0.0839 -0.0523,-0.093 -0.0401,-0.0113 -0.0818,0.0119 -0.093,0.052 -0.5966,2.1228 -10.7427,20.4954 -12.1756,22.181 -0.0269,0.0317 -0.023,0.0792 0.0089,0.1063 0.0075,0.0063 0.016,0.0111 0.0249,0.0139z"/>
   </g>
   <path id="_828611112" class="fil1" d="M158.338 111.07c0.5342,-0.6485 0.6459,0.6024 1.6975,1.9972 0.4312,0.5717 1.2375,0.8459 2.0618,1.0036 -1.0766,-0.3991 -2.2375,-1.3733 -2.4357,-3.25 -0.2506,-2.3676 0.0846,-4.1713 0.7229,-4.1906 1.0998,-0.0329 1.2959,1.8401 1.2124,4.0772 -0.0569,1.5257 0.4507,2.4027 1.0086,2.9391 -0.5958,-0.7592 -0.934,-2.1823 -0.6258,-4.6319 0.3011,-2.3963 1.8069,-3.8227 2.4336,-3.7294 1.0793,0.1607 1.1253,2.4326 0.4271,4.5794 -0.7382,2.2703 -1.1332,3.2967 -1.305,4.2043 0.569,-0.9184 1.1521,-1.785 1.6687,-4.0075 0.505,-2.1731 0.6334,-4.3097 1.7685,-3.8557 0.659,0.2634 1.6735,2.1783 0.2187,5.2092 -1.0761,2.242 -2.3661,2.7347 -3.2435,2.8969 0.985,-0.0165 2.5268,-0.5126 3.4782,-2.306 1.1759,-2.2169 1.5945,-3.5715 2.5774,-2.8492 0.5705,0.4193 0.9017,2.813 -0.8226,4.4949 -1.6552,1.6147 -3.7576,1.5525 -4.9849,1.0432 0.705,0.3622 1.554,0.6216 2.9399,0.5405 1.6379,-0.0959 2.3118,-0.4091 2.4715,0.3076 0.1505,0.6755 -1.4813,2.1121 -3.3958,1.595 -2.0993,-0.5668 -2.5336,-1.8685 -2.6982,-2.7613 -0.0642,0.008 -0.1247,0.0156 -0.1798,0.0234 0.0076,-0.0126 0.0149,-0.025 0.0225,-0.0375 -0.8928,0.5633 -2.3376,1.2129 -4.1699,0.1425 -1.3553,-0.792 -1.5154,-2.6253 -0.8481,-3.4349z"/>
   <g>
    <path id="_828611352" class="fil3" d="M165.874 113.227l-0.0013 -0.0195c-0.0078,-0.1228 -0.1245,-0.2301 -0.2522,-0.2121 -0.1282,0.018 -0.2306,0.126 -0.2221,0.2577l0.001 0.0195c0.0011,0.0163 0.0042,0.0319 0.0089,0.0473 -0.439,0.3926 -0.9338,0.6151 -1.4685,0.6581 0.3879,-0.3759 0.7289,-0.8113 1.0195,-1.2985 0.0267,0.0938 0.1057,0.1697 0.2339,0.1571 0.3054,-0.0293 0.2756,-0.4989 -0.0302,-0.4696 -0.0113,0.0011 -0.0213,0.0039 -0.0319,0.0063 0.0631,-0.1191 0.1232,-0.2412 0.1805,-0.366 0.0796,0.0128 0.1644,-0.0123 0.2228,-0.08 0.006,-0.0072 0.0123,-0.0143 0.0184,-0.0215 0.0824,-0.0954 0.0787,-0.2553 -0.0213,-0.3321 -0.1002,-0.077 -0.2477,-0.0696 -0.3355,0.0323l-0.0185 0.0215c-0.0043,0.005 -0.0073,0.0106 -0.0112,0.0161 -0.0011,-0.043 -0.0124,-0.0848 -0.033,-0.1213 0.0026,-0.0002 0.0048,0.0004 0.0074,0.0002 0.3054,-0.0295 0.2757,-0.4993 -0.0302,-0.4698 -0.2017,0.0193 -0.2564,0.2306 -0.1826,0.3635 -0.0035,0.0003 -0.0065,-0.0004 -0.01,0 -0.1323,0.0126 -0.2022,0.1065 -0.2156,0.2078 -0.0089,-0.003 -0.0191,-0.0043 -0.0289,-0.0062 0.0428,-0.1849 0.0794,-0.3725 0.1126,-0.5619 0.1024,-0.0362 0.177,-0.1312 0.1698,-0.2444l-0.0013 -0.0195c-0.0078,-0.1228 -0.1245,-0.2302 -0.2522,-0.2122 -0.1282,0.0182 -0.2306,0.1261 -0.2224,0.2579l0.0013 0.0193c0.0048,0.0749 0.0501,0.1434 0.1135,0.1818 -0.0384,0.2148 -0.0827,0.4265 -0.1334,0.6351 -0.0686,0.0638 -0.0885,0.1653 -0.064,0.2519 -0.056,0.208 -0.118,0.413 -0.1863,0.6147 -0.0948,0.0399 -0.1623,0.1306 -0.1553,0.2382l0.0013 0.0195c0.0019,0.0325 0.0119,0.0636 0.0273,0.0918 -0.0709,0.1861 -0.1466,0.3696 -0.2286,0.5498 0.0824,-0.3453 0.1462,-0.6965 0.1932,-1.0518 0.1239,-0.0828 0.1341,-0.2692 0.0423,-0.3707 0.0065,-0.0664 0.0133,-0.1325 0.0185,-0.1993 0.2785,-0.0311 0.2722,-0.4319 0.0273,-0.467 0.0763,-0.0901 0.0757,-0.2334 0.005,-0.3215 0,-0.0297 0.0004,-0.0594 0.0004,-0.0889 0.1022,-0.0365 0.1768,-0.1315 0.1694,-0.2443l-0.0013 -0.0197c-0.0078,-0.1228 -0.1245,-0.23 -0.2522,-0.212 -0.1282,0.018 -0.2306,0.1261 -0.2222,0.2577l0.0011 0.0196c0.005,0.0754 0.051,0.1446 0.1152,0.183 0.0002,0.0096 -0.0004,0.0189 -0.0004,0.0284 -0.0022,0.0003 -0.0037,-0.0004 -0.0059,-0.0002 -0.1048,0.01 -0.1698,0.0714 -0.1995,0.1464 0.0186,-0.1347 -0.0653,-0.2835 -0.2415,-0.2665 -0.3054,0.0292 -0.2759,0.4989 0.03,0.4696 0.1026,-0.0098 0.1666,-0.0696 0.1956,-0.1434 -0.0169,0.121 0.0473,0.2527 0.1855,0.2709 -0.0757,0.0916 -0.0712,0.2365 0.005,0.3215 -0.005,0.0662 -0.0089,0.1325 -0.015,0.1983 -0.0009,0.0002 -0.0017,0 -0.0026,0.0002 -0.2796,0.0266 -0.2826,0.4154 -0.0538,0.4715 -0.0371,0.2638 -0.0803,0.5258 -0.1375,0.784 -0.0024,-0.4577 -0.0579,-0.9113 -0.1608,-1.3607 0.2389,-0.0816 0.1933,-0.4838 -0.0904,-0.4564 -0.2492,0.0241 -0.2746,0.3407 -0.1093,0.4405 0.0002,0.0007 0.0004,0.0015 0.0006,0.0022 -0.0202,-0.003 -0.0412,-0.0048 -0.0644,-0.0026 -0.1705,0.0165 -0.238,0.1677 -0.213,0.2961 -0.0224,0.0065 -0.0408,0.0169 -0.0586,0.028 -0.0024,-0.0245 -0.0054,-0.0488 -0.0076,-0.0736 0.1102,-0.101 0.0989,-0.298 -0.0195,-0.3804 -0.0013,-0.0888 0.0009,-0.1781 0.0037,-0.2677 0.2761,-0.0538 0.2401,-0.4933 -0.0564,-0.4646 -0.2377,0.0227 -0.2716,0.3121 -0.1306,0.4253 -0.0017,0.054 -0.003,0.1081 -0.0032,0.1618 -0.0189,-0.0026 -0.0376,-0.0056 -0.0593,-0.0034 -0.2561,0.0245 -0.2802,0.3525 -0.1073,0.4514 0.0288,0.0746 0.0941,0.1303 0.1906,0.136 0.005,0.0566 0.0098,0.113 0.0163,0.1692 -0.0334,-0.0148 -0.0722,-0.0222 -0.118,-0.0178 -0.0521,0.005 -0.0937,0.0232 -0.1269,0.0488 0.0573,-0.1482 -0.0247,-0.3501 -0.2306,-0.3304 -0.2503,0.0241 -0.2791,0.3386 -0.1184,0.4447 0.1748,0.757 0.5933,1.3772 1.1609,1.7262 0.0083,0.0096 0.0169,0.0169 0.0265,0.0219 0.0581,0.013 0.2373,0.03 0.2477,0.0185 0.6861,0.0206 1.3271,-0.2367 1.8728,-0.7432 0.0297,0.01 0.0619,0.0139 0.0948,0.0093 0.128,-0.018 0.2306,-0.126 0.2221,-0.2577zm-3.3491 -0.7902l0 0c-0.0267,0.0697 -0.0228,0.1501 0.0102,0.215 -0.0085,0.0043 -0.0158,0.01 -0.0237,0.0154 -0.0214,-0.0636 -0.0412,-0.1282 -0.0587,-0.1944 0.0271,-0.0089 0.052,-0.0201 0.0722,-0.036zm0.1703 0.6577l0 0c0.1722,-0.0395 0.2201,-0.228 0.1553,-0.3551 0.0208,-0.011 0.0386,-0.0247 0.054,-0.0401 0.069,0.3651 0.1716,0.7199 0.3115,1.0622 -0.2072,-0.182 -0.382,-0.4078 -0.5208,-0.667zm0.3804 -0.5067l0 0c0.0241,0.0054 0.0499,0.0085 0.0792,0.0056 0.1705,-0.0162 0.2377,-0.1676 0.213,-0.2961 0.0284,-0.008 0.0523,-0.021 0.0736,-0.0366 0.09,0.5373 0.1045,1.0783 0.0449,1.6281 -0.1933,-0.4125 -0.3298,-0.8483 -0.4107,-1.301zm1.5557 -0.5045l0 0c0.1285,-0.0122 0.1968,-0.1024 0.2111,-0.2007 0.0308,0.0111 0.0659,0.0158 0.1061,0.0119 0.0787,-0.0076 0.1353,-0.044 0.1713,-0.0935 0.0018,0.033 0.0107,0.0649 0.0258,0.0938 -0.0984,0.2147 -0.2052,0.4216 -0.321,0.6186 -0.0219,-0.1035 -0.1045,-0.1907 -0.2429,-0.1774 -0.0454,0.0043 -0.0831,0.0186 -0.1141,0.039 0.0306,-0.098 0.0594,-0.1972 0.0872,-0.2967 0.0234,0.005 0.0483,0.0078 0.0765,0.005zm-0.6509 1.5548l0 0c0.0961,-0.2063 0.1848,-0.4163 0.2672,-0.6297 0.02,0.0035 0.0406,0.005 0.0616,0.0019 0.1098,-0.0154 0.2,-0.0969 0.2187,-0.2026 0.0254,0.0063 0.0531,0.0096 0.0844,0.0066 0.0097,-0.0009 0.0182,-0.0035 0.0273,-0.0053 -0.1989,0.2998 -0.4187,0.5768 -0.6592,0.8291z"/>
    <path id="_828611208" class="fil3" d="M165.671 112.502c0.3111,-0.0297 0.2809,-0.5082 -0.0306,-0.4783 -0.3108,0.0299 -0.2807,0.5082 0.0306,0.4783z"/>
   </g>
  </g>
  <g id="_828611496">
   <path id="_828611328" class="fil3" d="M138.64 117.831c-0.1198,-0.3401 -0.0601,-0.732 0.0635,-1.065 0.3432,-0.9243 2.9865,-1.1627 5.0283,-0.0909 -0.8989,-0.7633 -2.1917,-0.8555 -2.6791,-1.2984 -1.4626,-1.3284 -0.061,-2.5323 0.6447,-2.7553 0.7399,-0.2338 1.5524,0.4644 3.2795,2.9982 -1.3477,-2.2138 -1.0384,-3.5977 -0.8533,-4.0034 0.4179,-0.9164 1.9737,-1.5635 2.8702,-0.695 1.758,1.7033 -1.1903,3.5351 -0.9911,4.7472 0.2364,-1.0514 3.0159,-3.6559 4.7936,-2.28 0.2694,0.2085 0.4982,0.5102 0.5474,0.8501 0.0415,0.2859 -0.0544,0.5679 -0.2091,0.7885 -0.3073,0.4386 -3.0925,0.528 -3.6166,0.9872 1.7527,-0.5957 2.6668,0.3295 2.7635,0.6965 0.0835,0.3171 0.1143,0.6891 0.0067,1.0082 -0.0904,0.2685 -0.2685,0.4653 -0.4598,0.58 -0.6399,0.3837 -1.3199,-0.0724 -1.947,-0.3911 -0.7193,-0.3653 -1.4896,-0.5507 -2.2674,-0.5462 -0.1026,0.0005 -0.3113,-0.0171 -0.3189,0.0035 -0.0534,0.1453 -0.6395,0.2907 -0.7941,1.0271 -0.2425,1.1542 -0.7544,2.0271 -1.6264,2.3301 -1.7462,0.6069 -2.2247,-0.7447 -2.164,-1.5607 0.0577,-0.7714 0.8521,-1.4622 2.8913,-2.0585 -1.9846,0.0781 -2.6167,1.4665 -3.8509,1.6728 -0.5017,0.084 -1.0104,-0.6588 -1.111,-0.9449z"/>
   <path id="_828611064" class="fil4" d="M149.545 136.231c1.5171,-2.5045 -2.7465,-15.9323 -4.0823,-18.5379 -0.0043,0.1748 -0.033,0.3445 -0.1098,0.5161 -0.1637,0.3661 -0.3327,0.6394 -0.2271,1.0535 0.0222,0.0861 -0.0956,0.1091 -0.1366,0.0456 -0.392,-0.6087 -0.6137,-1.5512 0.1763,-1.9458 0.0263,-0.0379 0.061,-0.0603 0.1031,-0.0733 0.0052,-0.0171 0.0162,-0.0327 0.0329,-0.0425 0.0178,-0.0089 0.0369,-0.0108 0.0543,-0.0069 0.062,-0.0217 0.136,-0.0358 0.1908,-0.012 0.0024,0.0011 0.0035,0.0033 0.0059,0.0046 0.3345,-0.0681 0.7084,0.1744 0.9529,0.377 0.3575,0.2965 0.5989,0.6911 0.7959,1.106 0.0405,0.0857 -0.0833,0.1436 -0.1306,0.064 -0.1423,-0.2388 -0.305,-0.4744 -0.5508,-0.6169 -0.2019,-0.1171 -0.444,-0.1477 -0.6622,-0.221 -0.0978,-0.0328 -0.1885,-0.0736 -0.2701,-0.1234 1.2573,2.6203 5.4873,16.0028 3.9819,18.4884 -0.0076,0.0124 -0.0182,0.0217 -0.0301,0.0275 -0.0215,0.0107 -0.0477,0.0102 -0.0699,-0.003 -0.0342,-0.0208 -0.0453,-0.0655 -0.0245,-0.1z"/>
   <g>
    <path id="_828611184" class="fil5" d="M143.643 116.356c0.0223,0.0004 0.0436,-0.0046 0.0631,-0.0139 0.3948,0.3011 0.8394,0.4251 1.2989,0.3577 0.0076,0.0069 0.1269,-0.0187 0.1653,-0.0321 0.006,-0.0039 0.0115,-0.0098 0.0164,-0.017 0.3614,-0.2811 0.6074,-0.7346 0.6822,-1.262 0.102,-0.0846 0.0649,-0.2956 -0.1045,-0.2924 -0.1393,0.0026 -0.1831,0.1462 -0.1362,0.2421 -0.0239,-0.0147 -0.0527,-0.0238 -0.0879,-0.0232 -0.031,0.0007 -0.0568,0.0089 -0.0783,0.0215 0.0013,-0.0386 0.0013,-0.0775 0.0015,-0.1163 0.0645,-0.0113 0.1052,-0.0542 0.1202,-0.1071 0.1106,-0.0805 0.0759,-0.3011 -0.0974,-0.2979 -0.0145,0.0005 -0.0269,0.0037 -0.0395,0.007 -0.0032,-0.0365 -0.0071,-0.0729 -0.0113,-0.1096 0.0883,-0.0878 0.0493,-0.2813 -0.1117,-0.2783 -0.2004,0.0039 -0.2,0.3048 -0.0117,0.3195 0.007,0.0608 0.0135,0.1213 0.0176,0.1816 -0.0748,0.0653 -0.0712,0.1996 0.0082,0.2596 0,0.017 -0.0006,0.0337 -0.0008,0.0506 -0.0126,-0.0061 -0.0256,-0.0119 -0.041,-0.0145 0.0095,-0.089 -0.0441,-0.1864 -0.1597,-0.1842 -0.0156,0.0002 -0.0295,0.003 -0.0429,0.0067 0,0 0.0002,-0.0008 0.0002,-0.0015 0.1056,-0.0805 0.0707,-0.2935 -0.0981,-0.2902 -0.1919,0.0037 -0.1999,0.28 -0.0349,0.3167 -0.0438,0.313 -0.0555,0.6249 -0.0314,0.9357 -0.053,-0.1707 -0.0968,-0.3449 -0.1365,-0.521 0.1504,-0.0562 0.1265,-0.3195 -0.0627,-0.3158 0,0 -0.001,0.0002 -0.0017,0.0002 -0.0078,-0.0443 -0.0141,-0.0889 -0.021,-0.1334 0.0462,-0.0638 0.0412,-0.1625 -0.015,-0.2187 0.0918,-0.0232 0.1273,-0.1175 0.1093,-0.1982 0.0237,0.0477 0.0701,0.0833 0.1395,0.082 0.2069,-0.0039 0.2004,-0.3252 -0.0063,-0.3211 -0.1193,0.0022 -0.1672,0.1098 -0.1473,0.1998 -0.0241,-0.0486 -0.0711,-0.085 -0.1421,-0.0837 -0.0015,0 -0.0023,0.0006 -0.0039,0.0006 -0.0004,-0.0065 -0.0015,-0.0128 -0.0019,-0.0193 0.041,-0.031 0.0681,-0.0815 0.067,-0.1331l-0.0002 -0.0135c-0.0017,-0.09 -0.0766,-0.1551 -0.1638,-0.1575 -0.0867,-0.0021 -0.159,0.0799 -0.1572,0.1638l0.0002 0.0134c0.0013,0.0771 0.0568,0.1358 0.1275,0.1523 0.0015,0.0202 0.0035,0.0404 0.0052,0.0603 -0.0425,0.0655 -0.0349,0.1629 0.0215,0.2178 -0.1625,0.043 -0.1442,0.3156 0.0447,0.3147 0.0072,0.0449 0.0154,0.0894 0.0234,0.1339 -0.0559,0.0761 -0.0384,0.2017 0.0493,0.2481 0.0516,0.2376 0.1141,0.4707 0.1889,0.6987 -0.0651,-0.1158 -0.1263,-0.2345 -0.1844,-0.3551 0.0087,-0.0204 0.0137,-0.0423 0.0132,-0.0644l-0.0002 -0.0134c-0.0015,-0.0736 -0.052,-0.1298 -0.1178,-0.1495 -0.0572,-0.1315 -0.1104,-0.2657 -0.1596,-0.4024 0.0117,-0.0607 -0.0074,-0.1282 -0.0571,-0.1659 -0.0457,-0.1378 -0.0874,-0.2779 -0.1251,-0.4206 0.0401,-0.031 0.0668,-0.0809 0.0657,-0.1321l-0.0002 -0.0135c-0.0017,-0.0898 -0.0766,-0.1551 -0.1636,-0.1572 -0.0869,-0.0022 -0.1592,0.0796 -0.1574,0.1635l0.0002 0.0135c0.0015,0.0772 0.057,0.136 0.1277,0.1525 0.033,0.126 0.0682,0.2503 0.1072,0.3724 -0.0065,0.002 -0.0132,0.0037 -0.0191,0.0065 -0.0147,-0.0677 -0.0668,-0.1258 -0.1564,-0.1243 -0.0024,0.0002 -0.0043,0.0009 -0.0067,0.0009 0.0421,-0.0959 -0.0065,-0.2349 -0.143,-0.2323 -0.2069,0.0039 -0.2004,0.3249 0.0063,0.321 0.0016,0 0.0031,-0.0004 0.0048,-0.0004 -0.0119,0.0262 -0.0171,0.0555 -0.0154,0.0846 -0.0028,-0.0033 -0.0052,-0.007 -0.0085,-0.01l-0.0134 -0.013c-0.0646,-0.0623 -0.1642,-0.0558 -0.2271,0.0043 -0.0627,0.0599 -0.0562,0.1688 0.0043,0.2269 0.0046,0.0043 0.0091,0.0089 0.0137,0.0132 0.0429,0.0415 0.1013,0.0519 0.154,0.0367 0.0456,0.0803 0.0926,0.1583 0.1416,0.2343 -0.0071,-0.0007 -0.0141,-0.002 -0.0216,-0.0018 -0.207,0.0042 -0.2005,0.3252 0.006,0.3211 0.0868,-0.0016 0.1356,-0.0593 0.1484,-0.125 0.2223,0.3078 0.4757,0.5766 0.7572,0.8013 -0.3613,0.0126 -0.706,-0.0996 -1.0227,-0.3317 0.0024,-0.0106 0.0035,-0.0217 0.0032,-0.0327l-0.0002 -0.0132c-0.0017,-0.0901 -0.0765,-0.1554 -0.1637,-0.1575 -0.0868,-0.0022 -0.159,0.0796 -0.1575,0.1635l0.0004 0.0135c0.0018,0.09 0.0766,0.1553 0.1636,0.1575zm2.0904 -0.9373l0 0c-0.0081,0.0464 -0.0176,0.0917 -0.0284,0.1366 -0.0055,-0.003 -0.0109,-0.0063 -0.0167,-0.0086 0.0184,-0.0467 0.0164,-0.1016 -0.0055,-0.1467 0.0146,0.0091 0.0319,0.0148 0.0506,0.0187zm-0.4397 0.9342l0 0c0.0746,-0.2431 0.1234,-0.4919 0.1492,-0.7451 0.0113,0.0093 0.0241,0.0172 0.0386,0.023 -0.0364,0.0913 0.0063,0.2154 0.1241,0.2286 -0.0785,0.1868 -0.1831,0.3538 -0.3119,0.4935zm-0.1742 0.1076l0 0c-0.0711,-0.3685 -0.0918,-0.7366 -0.0616,-1.1082 0.015,0.0089 0.0319,0.0158 0.0514,0.0191 -0.0093,0.0891 0.0443,0.1865 0.1597,0.1841 0.0197,-0.0004 0.037,-0.0043 0.0529,-0.0099 -0.0289,0.3134 -0.0959,0.6197 -0.2024,0.9149zm-0.8193 -1.1446l0 0c0.0243,0.0652 0.0493,0.1301 0.0753,0.1943 -0.0219,-0.0115 -0.0479,-0.0182 -0.0788,-0.0176 -0.0937,0.0018 -0.144,0.0675 -0.1531,0.1395 -0.0889,-0.1247 -0.172,-0.2566 -0.2501,-0.3946 0.0085,-0.0208 0.0126,-0.0431 0.0119,-0.0657 0.0269,0.0308 0.0671,0.0512 0.1204,0.0501 0.0271,-0.0004 0.0506,-0.0065 0.0705,-0.0165 0.015,0.0656 0.066,0.1215 0.1529,0.1198 0.0191,-0.0005 0.0356,-0.0041 0.051,-0.0093zm-0.0156 0.5023l0 0c0.0061,0.0005 0.0119,0.0015 0.0184,0.0013 0.0213,-0.0004 0.0397,-0.0047 0.0564,-0.011 0.0185,0.0702 0.0838,0.1184 0.1582,0.1204 0.0143,0.0004 0.0279,-0.0022 0.0412,-0.0061 0.0672,0.1384 0.1388,0.2737 0.2147,0.4063 -0.1755,-0.1523 -0.3386,-0.3232 -0.4889,-0.5109z"/>
    <path id="_828610776" class="fil5" d="M143.575 115.69c-0.2104,0.0043 -0.2172,-0.3228 -0.0063,-0.3269 0.2104,-0.0041 0.2169,0.323 0.0063,0.3269z"/>
   </g>
  </g>
  <g id="_828611808">
   <path id="_828611736" class="fil7" d="M133.799 147.678c7.3161,0.3989 21.0591,0.3139 28.3749,-0.9978 0,-5.1023 0,-7.6534 0,-12.7556 -6.4597,-3.3078 -22.4447,-7.5029 -28.3749,-11.7579 0,8.5037 0,17.0076 0,25.5113z"/>
   <path id="_828612096" class="fil7" d="M81.8207 135.213c-7.3161,-0.3989 -21.6181,-0.813 -28.9339,0.4989 0,-5.1025 0,-7.6534 0,-12.7557 5.7048,-5.0768 22.6666,-9.3051 28.9339,-13.2545 0,8.5037 0,17.0076 0,25.5113z"/>
  </g>
  <path class="fil8" d="M52.8527 148.474c38.1035,-4.3485 71.2198,15.2917 109.321,10.9617 0,-8.5039 0,-17.0076 0,-25.5112 -38.1013,4.33 -71.2176,-15.3103 -109.321,-10.9618 0,8.5037 0,17.0074 0,25.5113z"/>
  <path class="fil9" d="M151.303 144.643c-0.072,-0.1531 -0.0707,-0.3746 -0.0577,-0.574 0.0176,-0.2711 0.0601,-0.544 0.1223,-0.8056 0.079,-0.3314 0.1931,-0.642 0.3371,-0.9112 -0.2579,0.1804 -0.5598,0.3253 -0.8854,0.4286 -0.2571,0.0816 -0.5274,0.1393 -0.7978,0.167 -0.199,0.0206 -0.4206,0.0276 -0.5805,-0.0559 -0.1306,-0.0686 -0.1915,-0.194 -0.0913,-0.3098 0.1384,-0.1603 0.472,-0.2438 0.6956,-0.3002 0.5853,-0.1482 1.2032,-0.2197 1.8056,-0.2965 -0.0002,-0.0055 0.0013,-0.01 0.0035,-0.0139 -0.6104,-0.1781 -1.2425,-0.3475 -1.8221,-0.6054 -0.2108,-0.0939 -0.5258,-0.2332 -0.6312,-0.4302 -0.0762,-0.1425 0.0095,-0.2735 0.1531,-0.3312 0.1757,-0.0705 0.3948,-0.0319 0.5885,0.0185 0.2631,0.0683 0.5204,0.17 0.7594,0.2963 0.4224,0.2229 0.7829,0.5292 1.0284,0.8932 -0.0857,-0.6071 -0.1831,-1.2282 -0.1857,-1.8388 -0.0008,-0.2308 -0.0032,-0.575 0.1332,-0.7522 0.0987,-0.128 0.2534,-0.1035 0.3649,0.0039 0.1364,0.1312 0.1911,0.3468 0.2247,0.544 0.0458,0.2681 0.0583,0.5442 0.0414,0.8143 -0.0267,0.4271 -0.1353,0.836 -0.3236,1.1852 0.4614,-0.3006 0.931,-0.6054 1.4249,-0.8377 0.2089,-0.0983 0.5202,-0.2456 0.7382,-0.1965 0.1577,0.0355 0.2006,0.1859 0.1505,0.3325 -0.0616,0.1789 -0.2338,0.3195 -0.3985,0.4332 -0.2238,0.1544 -0.4689,0.2824 -0.7208,0.3809 -0.3581,0.1401 -0.731,0.2147 -1.0902,0.2117 0.3115,0.1429 0.6126,0.3553 0.8826,0.6167 0.1937,0.1876 0.3729,0.398 0.5258,0.6229 0.1124,0.1653 0.2239,0.3573 0.2261,0.5373 0.0019,0.1478 -0.0797,0.2608 -0.2291,0.2278 -0.2067,-0.0458 -0.4388,-0.3 -0.5946,-0.4698 -0.4004,-0.4367 -0.7509,-0.9356 -1.098,-1.4206 -0.0507,0.5967 -0.098,1.2078 -0.2071,1.7921 -0.0423,0.2265 -0.1048,0.5644 -0.2345,0.7132 -0.0937,0.1076 -0.1987,0.0556 -0.2577,-0.0698z"/>
  <path class="fil9" d="M59.0334 139.312c-0.072,-0.1534 -0.0707,-0.3746 -0.0577,-0.574 0.0176,-0.2711 0.0601,-0.5442 0.1226,-0.8056 0.0787,-0.3314 0.1931,-0.6421 0.3371,-0.9113 -0.2581,0.1803 -0.5599,0.3254 -0.8855,0.4287 -0.2572,0.0815 -0.5275,0.1392 -0.798,0.167 -0.1989,0.0206 -0.4206,0.0273 -0.5804,-0.0562 -0.1306,-0.0683 -0.1916,-0.1939 -0.0914,-0.3097 0.1384,-0.1601 0.472,-0.2436 0.6957,-0.3003 0.5854,-0.1481 1.2032,-0.2195 1.8056,-0.2965 -0.0002,-0.0052 0.0013,-0.0097 0.0034,-0.0139 -0.6104,-0.178 -1.2422,-0.3472 -1.8218,-0.6054 -0.2111,-0.0937 -0.526,-0.2329 -0.6312,-0.4301 -0.0764,-0.1425 0.0093,-0.2733 0.1531,-0.331 0.1755,-0.0707 0.3946,-0.0321 0.5883,0.0182 0.2633,0.0686 0.5204,0.1701 0.7596,0.2965 0.4221,0.2228 0.7828,0.5291 1.0284,0.8931 -0.0859,-0.607 -0.1833,-1.2282 -0.1859,-1.8388 -0.0009,-0.2306 -0.0033,-0.5751 0.1332,-0.7521 0.0987,-0.1279 0.2533,-0.1034 0.3651,0.0037 0.1362,0.1313 0.1911,0.3469 0.2247,0.5443 0.0455,0.2681 0.0583,0.5442 0.0414,0.814 -0.0269,0.4271 -0.1356,0.8362 -0.3238,1.1855 0.4613,-0.3009 0.9309,-0.6054 1.4249,-0.8377 0.2088,-0.0983 0.5201,-0.2458 0.7381,-0.1968 0.1577,0.0356 0.2009,0.1861 0.1506,0.3325 -0.0614,0.179 -0.2339,0.3196 -0.3985,0.4334 -0.2239,0.1545 -0.469,0.2825 -0.7208,0.3809 -0.3579,0.1402 -0.7308,0.2148 -1.0902,0.2115 0.3115,0.1432 0.6125,0.3553 0.8826,0.6169 0.1939,0.1877 0.3731,0.3981 0.5258,0.6228 0.1126,0.1655 0.2238,0.3575 0.2262,0.5375 0.0018,0.1477 -0.0798,0.2607 -0.2292,0.2278 -0.2068,-0.046 -0.4386,-0.3 -0.5946,-0.4701 -0.4004,-0.4364 -0.751,-0.9355 -1.098,-1.4206 -0.0508,0.5968 -0.0979,1.2078 -0.207,1.7924 -0.0425,0.2265 -0.1049,0.5644 -0.2344,0.713 -0.094,0.1078 -0.1987,0.0557 -0.258,-0.0696z"/>
  <path class="fil3" d="M108.759 123.441c-0.5882,-0.9891 1.3139,-1.4562 2.0549,-0.8855 0.2496,-0.0618 0.4826,-0.154 0.6954,-0.2815 -1.3442,-0.6278 -2.6765,-1.3063 -3.9923,-2.0475 -0.138,0.2081 -0.1716,0.4653 -0.3729,0.6401 -0.1586,0.1378 -0.3675,0.2525 -0.5852,0.3089 -0.3406,0.0885 -0.8124,-0.0175 -0.9692,-0.4334 -0.1458,-0.3861 0.1095,-0.68 0.4262,-0.7897 0.2371,-0.0823 0.5154,-0.0942 0.7785,-0.1076 0.1104,-0.0057 0.2269,-0.0191 0.3441,-0.018 -0.3042,-0.3148 -0.5339,-0.7204 -0.7213,-1.0742 -0.1709,-0.3225 -0.3325,-0.8633 0.1712,-0.8421 0.4442,0.0185 0.8926,0.6276 1.1008,0.9707 0.2518,0.4156 0.3254,0.8631 0.1371,1.2124 1.2548,0.6999 2.5247,1.3444 3.806,1.9416 0.0466,-0.1985 -0.0391,-0.512 -0.0792,-0.6937 -0.003,-0.0146 -0.0085,-0.0289 -0.0119,-0.0432 -0.0081,-0.0048 -0.0161,-0.0069 -0.0241,-0.0132 -0.5709,-0.4399 -1.2557,-1.0759 -1.5271,-1.7286 -0.1731,-0.4161 0.0406,-0.7494 0.4935,-0.7043 0.5034,0.0501 1.0987,0.5967 1.3661,1.0245 0.3178,0.508 0.2538,1.0325 -0.0182,1.4238 0.0167,0.0713 0.0399,0.1423 0.0523,0.2139 0.036,0.2062 0.0863,0.455 0.0405,0.6539 0.9104,0.4185 1.8271,0.8098 2.7481,1.1811 -0.0373,-0.1995 -0.0638,-0.398 -0.0824,-0.5958 -0.0286,-0.0109 -0.0571,-0.0276 -0.082,-0.0577 -0.3219,-0.3902 -0.4807,-0.8612 -0.4254,-1.2922 0.0451,-0.3529 0.2432,-0.8232 0.7137,-0.7002 0.4431,0.1159 0.7071,0.5712 0.7256,0.9573 0.0236,0.4921 -0.2439,0.8965 -0.63,1.1299 0.0202,0.2275 0.0497,0.4559 0.0976,0.6865 0.9592,0.3811 1.9239,0.7366 2.8919,1.0713 0.0098,-0.2106 -0.0099,-0.4251 -0.0551,-0.6409 -0.4162,-0.3304 -0.7808,-0.849 -0.9327,-1.3195 -0.1074,-0.3321 0.0024,-0.7408 0.4013,-0.7152 0.3965,0.0252 0.7002,0.4707 0.8698,0.7881 0.2397,0.4481 0.2725,0.9284 -0.0084,1.2587 -0.0085,0.01 -0.0191,0.0145 -0.0289,0.0206 0.048,0.2397 0.0683,0.4779 0.0545,0.7117 1.0429,0.3553 2.0908,0.68 3.1409,0.987 0.0746,-0.2844 0.0462,-0.5926 -0.02,-0.9039 -0.3989,-0.4046 -1.008,-0.9902 -1.0555,-1.4987 -0.0466,-0.4997 0.4846,-0.5438 0.9145,-0.4249 0.5414,0.1499 0.8059,0.6039 0.8874,1.0867 0.0727,0.4302 0.1182,0.9779 -0.3731,1.0729 -0.0128,0.0026 -0.0245,0 -0.0366,-0.0004 0.0382,0.2605 0.0434,0.5158 -0.013,0.7587 1.1112,0.3202 2.2255,0.6148 3.3407,0.8874 0.2171,-0.2251 0.4446,-0.4824 0.46,-0.8219 0.0048,-0.1067 -0.0147,-0.211 -0.0514,-0.3125 -0.0291,-0.0191 -0.0529,-0.046 -0.07,-0.0764 -0.0235,0 -0.0489,-0.0041 -0.0775,-0.0184 -0.5381,-0.2727 -1.1401,-0.6438 -1.3249,-1.2321 -0.1416,-0.4512 0.0792,-0.9351 0.5785,-0.9208 0.487,0.0139 0.9416,0.4863 1.1807,0.8926 0.272,0.4622 0.2867,0.9596 -0.0228,1.2666 0.0503,0.1223 0.0839,0.2488 0.0898,0.3798 0.0174,0.3765 -0.1746,0.6728 -0.3989,0.9284 1.2711,0.3052 2.5431,0.5796 3.8136,0.8323 -0.0497,-0.3827 -0.1638,-0.7581 -0.3373,-1.1208 -0.6228,-0.4254 -1.3135,-0.9273 -1.5369,-1.6412 -0.1644,-0.5245 0.0306,-0.9644 0.6128,-0.9444 0.5176,0.0177 1.0345,0.4032 1.3065,0.8626 0.3585,0.6054 0.2609,1.2481 -0.0054,1.7403 -0.0107,0.0195 -0.0254,0.0334 -0.0419,0.0436 0.1599,0.3649 0.2644,0.7414 0.3071,1.1213 1.323,0.2592 2.6431,0.4882 3.9594,0.7012 -0.094,-0.3737 -0.2532,-0.7314 -0.4703,-1.0654 -0.031,0.0099 -0.0688,0.0093 -0.1121,-0.0109 -0.6493,-0.3015 -1.3662,-0.6711 -1.7082,-1.3338 -0.21,-0.4061 -0.271,-0.9848 0.17,-1.1338 0.4629,-0.1562 1.0744,0.2937 1.426,0.652 0.4638,0.4729 0.3939,0.9974 0.3204,1.5009 0.3297,0.4427 0.5631,0.9279 0.6841,1.4422 1.2627,0.2015 2.5199,0.3835 3.7707,0.5525 0.0047,-0.0082 0.0104,-0.0156 0.0151,-0.0239 -0.1772,-0.5787 -0.4969,-1.1049 -0.931,-1.5563 -0.562,-0.1902 -1.5374,-0.5818 -1.8474,-1.1273 -0.1757,-0.3089 -0.0918,-0.946 0.1718,-1.098 0.3679,-0.2128 1.0327,0.2052 1.3297,0.5104 0.4626,0.4763 0.6073,1.0767 0.6394,1.6388 0,0.0006 -0.0002,0.001 -0.0002,0.001 0.4419,0.489 0.7646,1.0538 0.9455,1.6644 0.0039,0.013 0.0024,0.0228 0.0031,0.0339 3.3849,0.4514 6.7154,0.8038 9.9368,1.1396 0.0833,0.0085 0.1579,0.0803 0.1666,0.1603 0.0039,0.0347 -0.0054,0.0653 -0.0243,0.0881 -0.0239,0.0293 -0.0636,0.0455 -0.1104,0.0405 -3.275,-0.3412 -6.6627,-0.7004 -10.1062,-1.1628 -0.3469,0.5657 -0.7746,1.0561 -1.2857,1.483 -0.2664,0.4072 -0.6254,0.8521 -1.098,0.9772 -0.382,0.1011 -0.9163,-0.1061 -1.0019,-0.5668 -0.0816,-0.4395 0.2683,-0.9269 0.6381,-1.0731 0.4184,-0.1652 0.9341,-0.0084 1.4039,0.1658 0.0366,-0.0241 0.0831,-0.0178 0.1265,0.0067 0.3277,-0.313 0.6132,-0.6601 0.8622,-1.0399 -1.2592,-0.1716 -2.5253,-0.3566 -3.7962,-0.5614 -0.1618,0.3514 -0.3824,0.6534 -0.6588,0.9122 0.0009,0.0036 0.0033,0.006 0.0039,0.0099 0.1699,0.8833 -0.6752,2.0518 -1.7546,1.3043 -0.3781,-0.262 -0.5763,-0.7475 -0.3534,-1.0611 0.3046,-0.428 1.1842,-0.3907 1.7267,-0.3618 0.003,0.0002 0.0054,0.0017 0.0082,0.0019 0.2929,-0.2375 0.5221,-0.5251 0.692,-0.8607 -1.1976,-0.1961 -2.398,-0.4037 -3.6014,-0.6381 -0.033,0.7559 -0.3259,1.3886 -0.8445,1.8578 -0.0933,0.4154 -0.316,0.774 -0.6796,0.9998 -0.3256,0.2026 -0.8414,0.2891 -1.2206,-0.0881 -0.3546,-0.3529 -0.2323,-0.8112 0.0608,-1.0266 0.4672,-0.3434 1.2238,-0.4222 1.8385,-0.4786 0.0328,-0.003 0.0599,0.0057 0.0842,0.0187 0.2757,-0.3753 0.4314,-0.8288 0.4573,-1.3436 -1.3549,-0.2676 -2.7117,-0.5609 -4.0674,-0.8878 0.0152,0.5072 -0.1158,0.9599 -0.3714,1.3321 -0.0275,0.5026 -0.2106,0.947 -0.575,1.2587 -0.3061,0.2618 -0.8193,0.4961 -1.2854,0.1334 -0.3358,-0.2616 -0.3358,-0.6735 -0.1371,-0.9169 0.3297,-0.403 1.1275,-0.4581 1.667,-0.5748 0.0132,-0.0169 0.0251,-0.0345 0.0377,-0.0516 0.0074,-0.033 0.0245,-0.0564 0.0501,-0.0683 0.2182,-0.3328 0.3239,-0.7349 0.3119,-1.1842 -1.1583,-0.2837 -2.3157,-0.59 -3.4699,-0.9251 -0.0031,0.0095 -0.0037,0.0191 -0.0094,0.028 -0.2759,0.4405 -0.6566,0.7746 -1.1318,1.0099 -0.0039,0.0117 -0.0065,0.0237 -0.0148,0.0345 -0.2778,0.3653 -0.7212,0.7416 -1.2403,0.795 -0.3429,0.0351 -0.7908,-0.1442 -0.924,-0.5245 -0.1629,-0.4653 0.3197,-0.7661 0.6989,-0.834 0.4321,-0.0773 0.9067,0.0642 1.3539,0.236 0.3866,-0.2072 0.7013,-0.4853 0.9436,-0.841 -0.9895,-0.2918 -1.9776,-0.598 -2.9613,-0.9327 -0.1933,0.3546 -0.4468,0.6533 -0.7713,0.8986 -0.0013,0.0009 -0.0024,0.0007 -0.0035,0.0016 -0.1328,0.3917 -0.4957,0.6743 -0.8768,0.8342 -0.3115,0.1306 -0.7164,0.0657 -0.9271,-0.3178 -0.2297,-0.4182 0.0354,-0.7776 0.3668,-0.9262 0.4178,-0.1872 0.9473,-0.1939 1.4469,-0.0215 0.1787,-0.1685 0.3297,-0.3609 0.4529,-0.5759 -0.985,-0.3403 -1.9666,-0.7026 -2.9431,-1.0908 -0.2076,0.2941 -0.4657,0.5377 -0.7716,0.7331 -0.0444,0.6415 -1.4015,1.5102 -1.9106,0.6358 -0.2377,-0.4082 0.0493,-0.7431 0.361,-0.8963 0.3928,-0.1926 0.8826,-0.1935 1.3629,-0.0334 0.011,0.0037 0.019,0.01 0.0286,0.015 0.2384,-0.1605 0.4418,-0.3547 0.6152,-0.5809 -0.9154,-0.3694 -1.8269,-0.7586 -2.7323,-1.1744 -0.2783,0.1946 -0.5941,0.3267 -0.9373,0.4072 -0.0178,0.0666 0.0078,0.1579 -0.0123,0.2266 -0.0304,0.1042 -0.1157,0.1736 -0.1875,0.2484 -0.1934,0.2024 -0.3902,0.4154 -0.662,0.5304 -0.405,0.1711 -1.0097,0.0824 -1.3004,-0.4063z"/>
 </g>
</svg>
